<?xml version="1.0" encoding="UTF-8"?>
<svg xmlns="http://www.w3.org/2000/svg" xmlns:xlink="http://www.w3.org/1999/xlink" viewBox="0 0 30 30" width="30px" height="30px">
<g id="surface5561246">
<path style=" stroke:none;fill-rule:nonzero;fill:rgb(30.980393%,27.450982%,72.941178%);fill-opacity:1;" d="M 23.75 3.75 L 6.25 3.75 C 4.867188 3.75 3.75 4.867188 3.75 6.25 L 3.75 23.75 C 3.75 25.132812 4.867188 26.25 6.25 26.25 L 23.75 26.25 C 25.132812 26.25 26.25 25.132812 26.25 23.75 L 26.25 6.25 C 26.25 4.867188 25.132812 3.75 23.75 3.75 Z M 11.25 21.25 L 8.097656 21.25 L 8.097656 12.5 L 11.25 12.5 Z M 9.617188 10.894531 C 8.652344 10.894531 8.011719 10.253906 8.011719 9.394531 C 8.011719 8.539062 8.652344 7.894531 9.722656 7.894531 C 10.6875 7.894531 11.332031 8.539062 11.332031 9.394531 C 11.332031 10.253906 10.6875 10.894531 9.617188 10.894531 Z M 22.5 21.25 L 19.449219 21.25 L 19.449219 16.46875 C 19.449219 15.144531 18.632812 14.839844 18.328125 14.839844 C 18.023438 14.839844 17.007812 15.042969 17.007812 16.46875 C 17.007812 16.671875 17.007812 21.25 17.007812 21.25 L 13.851562 21.25 L 13.851562 12.5 L 17.007812 12.5 L 17.007812 13.722656 C 17.414062 13.007812 18.226562 12.5 19.753906 12.5 C 21.277344 12.5 22.5 13.722656 22.5 16.46875 Z M 22.5 21.25 "/>
</g>
</svg>
